<mxfile host="65bd71144e">
    <diagram id="UiwUT3jPaBwuu-r2Ybzk" name="Page-1">
        <mxGraphModel dx="1195" dy="792" grid="1" gridSize="10" guides="1" tooltips="1" connect="1" arrows="1" fold="1" page="1" pageScale="1" pageWidth="850" pageHeight="1100" math="0" shadow="0">
            <root>
                <mxCell id="0"/>
                <mxCell id="1" parent="0"/>
                <mxCell id="2" value="product" style="whiteSpace=wrap;html=1;" vertex="1" parent="1">
                    <mxGeometry x="320" y="80" width="120" height="30" as="geometry"/>
                </mxCell>
                <mxCell id="7" value="" style="edgeStyle=none;html=1;startArrow=ERmany;startFill=0;endArrow=none;endFill=0;" edge="1" parent="1" source="3" target="5">
                    <mxGeometry relative="1" as="geometry"/>
                </mxCell>
                <mxCell id="3" value="id&lt;br&gt;naam&lt;br&gt;omschrijving&lt;br&gt;prijs&lt;br&gt;plaatje" style="whiteSpace=wrap;html=1;align=left;" vertex="1" parent="1">
                    <mxGeometry x="320" y="110" width="120" height="90" as="geometry"/>
                </mxCell>
                <mxCell id="4" value="shopping cart" style="whiteSpace=wrap;html=1;" vertex="1" parent="1">
                    <mxGeometry x="140" y="80" width="120" height="30" as="geometry"/>
                </mxCell>
                <mxCell id="11" value="" style="edgeStyle=none;html=1;startArrow=ERmany;startFill=0;endArrow=none;endFill=0;" edge="1" parent="1" source="5" target="10">
                    <mxGeometry relative="1" as="geometry"/>
                </mxCell>
                <mxCell id="5" value="id&lt;br&gt;user_id" style="whiteSpace=wrap;html=1;align=left;" vertex="1" parent="1">
                    <mxGeometry x="140" y="110" width="120" height="90" as="geometry"/>
                </mxCell>
                <mxCell id="9" value="orderlist" style="whiteSpace=wrap;html=1;" vertex="1" parent="1">
                    <mxGeometry x="140" y="260" width="120" height="30" as="geometry"/>
                </mxCell>
                <mxCell id="10" value="id&lt;br&gt;user_id" style="whiteSpace=wrap;html=1;align=left;" vertex="1" parent="1">
                    <mxGeometry x="140" y="290" width="120" height="90" as="geometry"/>
                </mxCell>
            </root>
        </mxGraphModel>
    </diagram>
</mxfile>